<svg xmlns="http://www.w3.org/2000/svg" width="600" height="760" viewBox="0 0 600 760">
<defs><linearGradient id="tx" x1="0" y1="0" x2="1" y2="0"><stop offset="0%" stop-color="#1d1a14"/><stop offset="45%" stop-color="#caa45a"/><stop offset="55%" stop-color="#e8c878"/><stop offset="100%" stop-color="#17140e"/></linearGradient></defs>
<rect width="600" height="760" fill="url(#tx)"/>
<line x1="0.0" y1="0" x2="0.0" y2="760" stroke="rgba(40,24,6,0.15)" stroke-width="3.5"/>
<line x1="2.0" y1="0" x2="2.0" y2="760" stroke="rgba(255,240,200,0.06)" stroke-width="1.2"/>
<line x1="8.6" y1="0" x2="8.6" y2="760" stroke="rgba(40,24,6,0.17)" stroke-width="3.5"/>
<line x1="10.6" y1="0" x2="10.6" y2="760" stroke="rgba(255,240,200,0.07)" stroke-width="1.2"/>
<line x1="17.1" y1="0" x2="17.1" y2="760" stroke="rgba(40,24,6,0.18)" stroke-width="3.5"/>
<line x1="19.1" y1="0" x2="19.1" y2="760" stroke="rgba(255,240,200,0.07)" stroke-width="1.2"/>
<line x1="25.7" y1="0" x2="25.7" y2="760" stroke="rgba(40,24,6,0.20)" stroke-width="3.5"/>
<line x1="27.7" y1="0" x2="27.7" y2="760" stroke="rgba(255,240,200,0.08)" stroke-width="1.2"/>
<line x1="34.3" y1="0" x2="34.3" y2="760" stroke="rgba(40,24,6,0.21)" stroke-width="3.5"/>
<line x1="36.3" y1="0" x2="36.3" y2="760" stroke="rgba(255,240,200,0.08)" stroke-width="1.2"/>
<line x1="42.9" y1="0" x2="42.9" y2="760" stroke="rgba(40,24,6,0.23)" stroke-width="3.5"/>
<line x1="44.9" y1="0" x2="44.9" y2="760" stroke="rgba(255,240,200,0.09)" stroke-width="1.2"/>
<line x1="51.4" y1="0" x2="51.4" y2="760" stroke="rgba(40,24,6,0.24)" stroke-width="3.5"/>
<line x1="53.4" y1="0" x2="53.4" y2="760" stroke="rgba(255,240,200,0.10)" stroke-width="1.2"/>
<line x1="60.0" y1="0" x2="60.0" y2="760" stroke="rgba(40,24,6,0.26)" stroke-width="3.5"/>
<line x1="62.0" y1="0" x2="62.0" y2="760" stroke="rgba(255,240,200,0.10)" stroke-width="1.2"/>
<line x1="68.6" y1="0" x2="68.6" y2="760" stroke="rgba(40,24,6,0.27)" stroke-width="3.5"/>
<line x1="70.6" y1="0" x2="70.6" y2="760" stroke="rgba(255,240,200,0.11)" stroke-width="1.2"/>
<line x1="77.1" y1="0" x2="77.1" y2="760" stroke="rgba(40,24,6,0.29)" stroke-width="3.5"/>
<line x1="79.1" y1="0" x2="79.1" y2="760" stroke="rgba(255,240,200,0.12)" stroke-width="1.2"/>
<line x1="85.7" y1="0" x2="85.7" y2="760" stroke="rgba(40,24,6,0.30)" stroke-width="3.5"/>
<line x1="87.7" y1="0" x2="87.7" y2="760" stroke="rgba(255,240,200,0.12)" stroke-width="1.2"/>
<line x1="94.3" y1="0" x2="94.3" y2="760" stroke="rgba(40,24,6,0.32)" stroke-width="3.5"/>
<line x1="96.3" y1="0" x2="96.3" y2="760" stroke="rgba(255,240,200,0.13)" stroke-width="1.2"/>
<line x1="102.9" y1="0" x2="102.9" y2="760" stroke="rgba(40,24,6,0.33)" stroke-width="3.5"/>
<line x1="104.9" y1="0" x2="104.9" y2="760" stroke="rgba(255,240,200,0.13)" stroke-width="1.2"/>
<line x1="111.4" y1="0" x2="111.4" y2="760" stroke="rgba(40,24,6,0.34)" stroke-width="3.5"/>
<line x1="113.4" y1="0" x2="113.4" y2="760" stroke="rgba(255,240,200,0.14)" stroke-width="1.2"/>
<line x1="120.0" y1="0" x2="120.0" y2="760" stroke="rgba(40,24,6,0.36)" stroke-width="3.5"/>
<line x1="122.0" y1="0" x2="122.0" y2="760" stroke="rgba(255,240,200,0.14)" stroke-width="1.2"/>
<line x1="128.6" y1="0" x2="128.6" y2="760" stroke="rgba(40,24,6,0.37)" stroke-width="3.5"/>
<line x1="130.6" y1="0" x2="130.6" y2="760" stroke="rgba(255,240,200,0.15)" stroke-width="1.2"/>
<line x1="137.1" y1="0" x2="137.1" y2="760" stroke="rgba(40,24,6,0.38)" stroke-width="3.5"/>
<line x1="139.1" y1="0" x2="139.1" y2="760" stroke="rgba(255,240,200,0.15)" stroke-width="1.2"/>
<line x1="145.7" y1="0" x2="145.7" y2="760" stroke="rgba(40,24,6,0.39)" stroke-width="3.5"/>
<line x1="147.7" y1="0" x2="147.7" y2="760" stroke="rgba(255,240,200,0.16)" stroke-width="1.2"/>
<line x1="154.3" y1="0" x2="154.3" y2="760" stroke="rgba(40,24,6,0.40)" stroke-width="3.5"/>
<line x1="156.3" y1="0" x2="156.3" y2="760" stroke="rgba(255,240,200,0.16)" stroke-width="1.2"/>
<line x1="162.9" y1="0" x2="162.9" y2="760" stroke="rgba(40,24,6,0.41)" stroke-width="3.5"/>
<line x1="164.9" y1="0" x2="164.9" y2="760" stroke="rgba(255,240,200,0.17)" stroke-width="1.2"/>
<line x1="171.4" y1="0" x2="171.4" y2="760" stroke="rgba(40,24,6,0.42)" stroke-width="3.5"/>
<line x1="173.4" y1="0" x2="173.4" y2="760" stroke="rgba(255,240,200,0.17)" stroke-width="1.2"/>
<line x1="180.0" y1="0" x2="180.0" y2="760" stroke="rgba(40,24,6,0.43)" stroke-width="3.5"/>
<line x1="182.0" y1="0" x2="182.0" y2="760" stroke="rgba(255,240,200,0.17)" stroke-width="1.2"/>
<line x1="188.6" y1="0" x2="188.6" y2="760" stroke="rgba(40,24,6,0.44)" stroke-width="3.5"/>
<line x1="190.6" y1="0" x2="190.6" y2="760" stroke="rgba(255,240,200,0.18)" stroke-width="1.2"/>
<line x1="197.1" y1="0" x2="197.1" y2="760" stroke="rgba(40,24,6,0.45)" stroke-width="3.5"/>
<line x1="199.1" y1="0" x2="199.1" y2="760" stroke="rgba(255,240,200,0.18)" stroke-width="1.2"/>
<line x1="205.7" y1="0" x2="205.7" y2="760" stroke="rgba(40,24,6,0.46)" stroke-width="3.5"/>
<line x1="207.7" y1="0" x2="207.7" y2="760" stroke="rgba(255,240,200,0.18)" stroke-width="1.2"/>
<line x1="214.3" y1="0" x2="214.3" y2="760" stroke="rgba(40,24,6,0.47)" stroke-width="3.5"/>
<line x1="216.3" y1="0" x2="216.3" y2="760" stroke="rgba(255,240,200,0.19)" stroke-width="1.2"/>
<line x1="222.9" y1="0" x2="222.9" y2="760" stroke="rgba(40,24,6,0.47)" stroke-width="3.5"/>
<line x1="224.9" y1="0" x2="224.9" y2="760" stroke="rgba(255,240,200,0.19)" stroke-width="1.2"/>
<line x1="231.4" y1="0" x2="231.4" y2="760" stroke="rgba(40,24,6,0.48)" stroke-width="3.5"/>
<line x1="233.4" y1="0" x2="233.4" y2="760" stroke="rgba(255,240,200,0.19)" stroke-width="1.2"/>
<line x1="240.0" y1="0" x2="240.0" y2="760" stroke="rgba(40,24,6,0.48)" stroke-width="3.5"/>
<line x1="242.0" y1="0" x2="242.0" y2="760" stroke="rgba(255,240,200,0.19)" stroke-width="1.2"/>
<line x1="248.6" y1="0" x2="248.6" y2="760" stroke="rgba(40,24,6,0.49)" stroke-width="3.5"/>
<line x1="250.6" y1="0" x2="250.6" y2="760" stroke="rgba(255,240,200,0.19)" stroke-width="1.2"/>
<line x1="257.1" y1="0" x2="257.1" y2="760" stroke="rgba(40,24,6,0.49)" stroke-width="3.5"/>
<line x1="259.1" y1="0" x2="259.1" y2="760" stroke="rgba(255,240,200,0.20)" stroke-width="1.2"/>
<line x1="265.7" y1="0" x2="265.7" y2="760" stroke="rgba(40,24,6,0.49)" stroke-width="3.5"/>
<line x1="267.7" y1="0" x2="267.7" y2="760" stroke="rgba(255,240,200,0.20)" stroke-width="1.2"/>
<line x1="274.3" y1="0" x2="274.3" y2="760" stroke="rgba(40,24,6,0.50)" stroke-width="3.5"/>
<line x1="276.3" y1="0" x2="276.3" y2="760" stroke="rgba(255,240,200,0.20)" stroke-width="1.2"/>
<line x1="282.9" y1="0" x2="282.9" y2="760" stroke="rgba(40,24,6,0.50)" stroke-width="3.5"/>
<line x1="284.9" y1="0" x2="284.9" y2="760" stroke="rgba(255,240,200,0.20)" stroke-width="1.2"/>
<line x1="291.4" y1="0" x2="291.4" y2="760" stroke="rgba(40,24,6,0.50)" stroke-width="3.5"/>
<line x1="293.4" y1="0" x2="293.4" y2="760" stroke="rgba(255,240,200,0.20)" stroke-width="1.2"/>
<line x1="300.0" y1="0" x2="300.0" y2="760" stroke="rgba(40,24,6,0.50)" stroke-width="3.5"/>
<line x1="302.0" y1="0" x2="302.0" y2="760" stroke="rgba(255,240,200,0.20)" stroke-width="1.2"/>
<line x1="308.6" y1="0" x2="308.6" y2="760" stroke="rgba(40,24,6,0.50)" stroke-width="3.5"/>
<line x1="310.6" y1="0" x2="310.6" y2="760" stroke="rgba(255,240,200,0.20)" stroke-width="1.2"/>
<line x1="317.1" y1="0" x2="317.1" y2="760" stroke="rgba(40,24,6,0.50)" stroke-width="3.5"/>
<line x1="319.1" y1="0" x2="319.1" y2="760" stroke="rgba(255,240,200,0.20)" stroke-width="1.2"/>
<line x1="325.7" y1="0" x2="325.7" y2="760" stroke="rgba(40,24,6,0.50)" stroke-width="3.5"/>
<line x1="327.7" y1="0" x2="327.7" y2="760" stroke="rgba(255,240,200,0.20)" stroke-width="1.2"/>
<line x1="334.3" y1="0" x2="334.3" y2="760" stroke="rgba(40,24,6,0.49)" stroke-width="3.5"/>
<line x1="336.3" y1="0" x2="336.3" y2="760" stroke="rgba(255,240,200,0.20)" stroke-width="1.2"/>
<line x1="342.9" y1="0" x2="342.9" y2="760" stroke="rgba(40,24,6,0.49)" stroke-width="3.5"/>
<line x1="344.9" y1="0" x2="344.9" y2="760" stroke="rgba(255,240,200,0.20)" stroke-width="1.2"/>
<line x1="351.4" y1="0" x2="351.4" y2="760" stroke="rgba(40,24,6,0.49)" stroke-width="3.5"/>
<line x1="353.4" y1="0" x2="353.4" y2="760" stroke="rgba(255,240,200,0.19)" stroke-width="1.2"/>
<line x1="360.0" y1="0" x2="360.0" y2="760" stroke="rgba(40,24,6,0.48)" stroke-width="3.5"/>
<line x1="362.0" y1="0" x2="362.0" y2="760" stroke="rgba(255,240,200,0.19)" stroke-width="1.2"/>
<line x1="368.6" y1="0" x2="368.6" y2="760" stroke="rgba(40,24,6,0.48)" stroke-width="3.5"/>
<line x1="370.6" y1="0" x2="370.6" y2="760" stroke="rgba(255,240,200,0.19)" stroke-width="1.2"/>
<line x1="377.1" y1="0" x2="377.1" y2="760" stroke="rgba(40,24,6,0.47)" stroke-width="3.5"/>
<line x1="379.1" y1="0" x2="379.1" y2="760" stroke="rgba(255,240,200,0.19)" stroke-width="1.2"/>
<line x1="385.7" y1="0" x2="385.7" y2="760" stroke="rgba(40,24,6,0.47)" stroke-width="3.5"/>
<line x1="387.7" y1="0" x2="387.7" y2="760" stroke="rgba(255,240,200,0.19)" stroke-width="1.2"/>
<line x1="394.3" y1="0" x2="394.3" y2="760" stroke="rgba(40,24,6,0.46)" stroke-width="3.5"/>
<line x1="396.3" y1="0" x2="396.3" y2="760" stroke="rgba(255,240,200,0.18)" stroke-width="1.2"/>
<line x1="402.9" y1="0" x2="402.9" y2="760" stroke="rgba(40,24,6,0.45)" stroke-width="3.5"/>
<line x1="404.9" y1="0" x2="404.9" y2="760" stroke="rgba(255,240,200,0.18)" stroke-width="1.2"/>
<line x1="411.4" y1="0" x2="411.4" y2="760" stroke="rgba(40,24,6,0.44)" stroke-width="3.5"/>
<line x1="413.4" y1="0" x2="413.4" y2="760" stroke="rgba(255,240,200,0.18)" stroke-width="1.2"/>
<line x1="420.0" y1="0" x2="420.0" y2="760" stroke="rgba(40,24,6,0.43)" stroke-width="3.5"/>
<line x1="422.0" y1="0" x2="422.0" y2="760" stroke="rgba(255,240,200,0.17)" stroke-width="1.2"/>
<line x1="428.6" y1="0" x2="428.6" y2="760" stroke="rgba(40,24,6,0.42)" stroke-width="3.5"/>
<line x1="430.6" y1="0" x2="430.6" y2="760" stroke="rgba(255,240,200,0.17)" stroke-width="1.2"/>
<line x1="437.1" y1="0" x2="437.1" y2="760" stroke="rgba(40,24,6,0.41)" stroke-width="3.5"/>
<line x1="439.1" y1="0" x2="439.1" y2="760" stroke="rgba(255,240,200,0.17)" stroke-width="1.2"/>
<line x1="445.7" y1="0" x2="445.7" y2="760" stroke="rgba(40,24,6,0.40)" stroke-width="3.5"/>
<line x1="447.7" y1="0" x2="447.7" y2="760" stroke="rgba(255,240,200,0.16)" stroke-width="1.2"/>
<line x1="454.3" y1="0" x2="454.3" y2="760" stroke="rgba(40,24,6,0.39)" stroke-width="3.5"/>
<line x1="456.3" y1="0" x2="456.3" y2="760" stroke="rgba(255,240,200,0.16)" stroke-width="1.2"/>
<line x1="462.9" y1="0" x2="462.9" y2="760" stroke="rgba(40,24,6,0.38)" stroke-width="3.5"/>
<line x1="464.9" y1="0" x2="464.9" y2="760" stroke="rgba(255,240,200,0.15)" stroke-width="1.2"/>
<line x1="471.4" y1="0" x2="471.4" y2="760" stroke="rgba(40,24,6,0.37)" stroke-width="3.5"/>
<line x1="473.4" y1="0" x2="473.4" y2="760" stroke="rgba(255,240,200,0.15)" stroke-width="1.2"/>
<line x1="480.0" y1="0" x2="480.0" y2="760" stroke="rgba(40,24,6,0.36)" stroke-width="3.5"/>
<line x1="482.0" y1="0" x2="482.0" y2="760" stroke="rgba(255,240,200,0.14)" stroke-width="1.2"/>
<line x1="488.6" y1="0" x2="488.6" y2="760" stroke="rgba(40,24,6,0.34)" stroke-width="3.5"/>
<line x1="490.6" y1="0" x2="490.6" y2="760" stroke="rgba(255,240,200,0.14)" stroke-width="1.2"/>
<line x1="497.1" y1="0" x2="497.1" y2="760" stroke="rgba(40,24,6,0.33)" stroke-width="3.5"/>
<line x1="499.1" y1="0" x2="499.1" y2="760" stroke="rgba(255,240,200,0.13)" stroke-width="1.2"/>
<line x1="505.7" y1="0" x2="505.7" y2="760" stroke="rgba(40,24,6,0.32)" stroke-width="3.5"/>
<line x1="507.7" y1="0" x2="507.7" y2="760" stroke="rgba(255,240,200,0.13)" stroke-width="1.2"/>
<line x1="514.3" y1="0" x2="514.3" y2="760" stroke="rgba(40,24,6,0.30)" stroke-width="3.5"/>
<line x1="516.3" y1="0" x2="516.3" y2="760" stroke="rgba(255,240,200,0.12)" stroke-width="1.2"/>
<line x1="522.9" y1="0" x2="522.9" y2="760" stroke="rgba(40,24,6,0.29)" stroke-width="3.5"/>
<line x1="524.9" y1="0" x2="524.9" y2="760" stroke="rgba(255,240,200,0.12)" stroke-width="1.2"/>
<line x1="531.4" y1="0" x2="531.4" y2="760" stroke="rgba(40,24,6,0.27)" stroke-width="3.5"/>
<line x1="533.4" y1="0" x2="533.4" y2="760" stroke="rgba(255,240,200,0.11)" stroke-width="1.2"/>
<line x1="540.0" y1="0" x2="540.0" y2="760" stroke="rgba(40,24,6,0.26)" stroke-width="3.5"/>
<line x1="542.0" y1="0" x2="542.0" y2="760" stroke="rgba(255,240,200,0.10)" stroke-width="1.2"/>
<line x1="548.6" y1="0" x2="548.6" y2="760" stroke="rgba(40,24,6,0.24)" stroke-width="3.5"/>
<line x1="550.6" y1="0" x2="550.6" y2="760" stroke="rgba(255,240,200,0.10)" stroke-width="1.2"/>
<line x1="557.1" y1="0" x2="557.1" y2="760" stroke="rgba(40,24,6,0.23)" stroke-width="3.5"/>
<line x1="559.1" y1="0" x2="559.1" y2="760" stroke="rgba(255,240,200,0.09)" stroke-width="1.2"/>
<line x1="565.7" y1="0" x2="565.7" y2="760" stroke="rgba(40,24,6,0.21)" stroke-width="3.5"/>
<line x1="567.7" y1="0" x2="567.7" y2="760" stroke="rgba(255,240,200,0.08)" stroke-width="1.2"/>
<line x1="574.3" y1="0" x2="574.3" y2="760" stroke="rgba(40,24,6,0.20)" stroke-width="3.5"/>
<line x1="576.3" y1="0" x2="576.3" y2="760" stroke="rgba(255,240,200,0.08)" stroke-width="1.2"/>
<line x1="582.9" y1="0" x2="582.9" y2="760" stroke="rgba(40,24,6,0.18)" stroke-width="3.5"/>
<line x1="584.9" y1="0" x2="584.9" y2="760" stroke="rgba(255,240,200,0.07)" stroke-width="1.2"/>
<line x1="591.4" y1="0" x2="591.4" y2="760" stroke="rgba(40,24,6,0.17)" stroke-width="3.5"/>
<line x1="593.4" y1="0" x2="593.4" y2="760" stroke="rgba(255,240,200,0.07)" stroke-width="1.2"/>
</svg>